<?xml version="1.0" standalone="no"?>
<!DOCTYPE svg PUBLIC "-//W3C//DTD SVG 20010904//EN"
 "http://www.w3.org/TR/2001/REC-SVG-20010904/DTD/svg10.dtd">
<svg version="1.0" xmlns="http://www.w3.org/2000/svg"
 width="400.000000pt" height="400.000000pt" viewBox="0 0 400.000000 400.000000"
 preserveAspectRatio="xMidYMid meet">

<g transform="translate(0.000000,400.000000) scale(0.100000,-0.100000)"
fill="#000000" stroke="none">
<path d="M0 2120 c0 -1304 3 -1880 10 -1880 19 0 60 -52 60 -77 0 -21 -3 -22
-20 -13 -11 6 -26 23 -34 38 l-15 27 -1 -47 c0 -44 2 -48 28 -54 44 -11 62
-33 62 -76 0 -21 5 -38 10 -38 6 0 10 17 10 39 0 36 2 39 28 37 38 -2 48 -11
55 -46 6 -28 9 -30 52 -30 41 0 61 13 33 22 -6 2 -8 9 -5 15 5 8 25 4 67 -13
l60 -24 421 0 421 0 -21 34 c-12 18 -21 41 -21 50 0 9 -3 15 -7 15 -22 -4 -43
2 -43 11 0 7 6 7 19 1 24 -13 38 14 19 37 -12 14 -11 14 10 1 12 -8 22 -17 22
-21 0 -4 28 -22 63 -39 69 -35 77 -43 70 -70 -7 -27 19 -24 36 3 l14 22 17
-22 18 -22 422 0 421 0 33 25 c29 22 35 24 46 10 11 -14 14 -13 25 1 7 10 17
14 24 10 6 -4 19 -2 27 5 11 9 18 9 26 1 13 -13 133 -15 216 -3 63 9 114 3
109 -13 -5 -15 -111 -30 -115 -16 -5 15 -39 12 -46 -5 -5 -13 32 -15 292 -15
219 0 301 3 310 12 9 9 12 9 12 0 0 -8 25 -12 83 -12 l83 0 -2 40 c-1 22 2 40
7 40 4 0 11 16 15 35 8 44 24 46 24 2 0 -18 8 -50 18 -70 14 -29 20 -35 30
-25 9 9 12 8 12 -5 0 -16 21 -17 245 -17 l245 0 0 2000 0 2000 -2000 0 -2000
0 0 -1880z m1711 634 c10 -12 13 -45 11 -123 -2 -87 -5 -109 -20 -121 -10 -8
-36 -30 -57 -48 -30 -24 -37 -35 -27 -41 8 -4 14 -12 14 -17 2 -25 11 -43 18
-39 5 3 2 -7 -5 -23 -16 -32 -10 -72 12 -72 8 0 11 -4 8 -10 -4 -6 7 -10 27
-10 46 0 66 -14 42 -28 -18 -11 -17 -13 11 -36 17 -14 52 -33 79 -42 61 -21
190 -21 237 -1 47 20 115 89 127 129 19 63 23 88 12 88 -7 0 -9 15 -6 40 2 22
0 43 -6 46 -5 4 -8 17 -5 30 3 15 0 24 -9 24 -7 0 -19 6 -26 13 -11 11 -42 28
-58 31 -18 4 -27 19 -23 35 4 17 48 35 81 34 6 0 12 4 12 9 0 5 10 6 21 3 19
-6 21 -4 16 14 -8 32 15 26 35 -9 16 -29 45 -43 35 -17 -17 47 -18 57 -3 57 9
0 16 -4 16 -10 0 -5 5 -10 10 -10 13 0 13 26 -2 67 -18 50 0 61 48 30 36 -23
94 -80 94 -92 0 -3 9 -15 20 -27 11 -12 20 -28 20 -35 0 -7 4 -12 9 -11 5 2
16 -5 23 -15 20 -26 71 -30 96 -7 18 17 21 18 24 3 2 -10 15 -17 36 -18 28 -2
32 0 33 24 0 23 1 24 9 6 5 -11 9 -39 9 -61 1 -28 6 -44 16 -48 8 -3 15 -18
15 -32 l0 -27 -23 21 c-13 12 -29 22 -36 22 -7 0 -24 9 -38 20 -14 11 -31 20
-39 20 -7 0 -14 5 -16 11 -9 28 -156 5 -161 -26 -1 -5 -5 -9 -8 -8 -14 5 -51
-153 -52 -220 -1 -86 15 -118 77 -149 38 -19 166 -38 166 -25 0 4 -17 14 -37
23 -33 14 -35 17 -19 23 19 7 19 8 0 16 -10 4 -30 8 -44 7 -25 -1 -25 -1 -2 6
19 6 38 29 59 70 4 10 43 -21 43 -34 0 -11 9 -14 38 -12 32 3 37 6 40 32 4 36
-14 82 -43 105 -13 9 -25 28 -27 42 -3 21 1 24 34 26 30 2 41 -3 59 -25 21
-27 21 -32 16 -322 -5 -306 -15 -390 -51 -425 -9 -10 -20 -30 -23 -46 -3 -16
-10 -32 -14 -35 -5 -3 -9 -13 -9 -23 0 -9 -15 -33 -32 -53 -18 -20 -48 -65
-66 -101 -18 -36 -39 -70 -47 -77 -8 -7 -15 -17 -15 -22 0 -18 -81 -90 -95
-84 -8 3 -17 0 -21 -6 -4 -6 -12 3 -20 21 -13 30 -31 37 -46 16 -5 -6 -12 -4
-18 5 -5 8 -14 15 -19 15 -6 0 -16 9 -24 19 -18 24 -37 13 -37 -22 0 -23 -1
-24 -12 -9 -17 22 -78 35 -78 16 0 -8 -5 -6 -13 6 -9 11 -19 15 -26 10 -14 -8
-101 32 -101 47 0 5 -5 6 -10 3 -6 -3 -13 1 -16 9 -3 9 -10 16 -15 16 -13 0
-68 63 -69 78 0 6 -7 12 -16 12 -12 0 -15 7 -12 30 3 23 1 30 -9 26 -7 -3 -13
-1 -13 4 0 6 4 10 9 10 13 0 21 27 15 45 -4 10 -14 13 -30 9 -15 -4 -24 -2
-24 6 0 13 -49 81 -66 92 -7 4 -14 19 -18 32 -3 13 -15 26 -25 29 -11 3 -28
23 -38 45 -12 29 -21 38 -29 31 -8 -6 -15 4 -24 36 -7 25 -21 56 -31 68 -11
15 -20 50 -24 98 -4 40 -10 76 -13 79 -4 3 -8 16 -10 30 -2 14 -7 36 -12 50
-13 34 2 86 23 82 22 -4 22 31 0 64 -17 27 -25 84 -11 84 4 0 8 9 8 21 0 11
-4 17 -10 14 -17 -10 -12 2 33 88 47 91 78 137 117 176 16 17 24 34 22 49 -2
12 1 22 7 22 6 0 11 11 11 25 0 29 12 32 31 9z m217 -84 c51 -86 53 -93 40
-102 -7 -4 -50 -8 -95 -7 -60 1 -87 -3 -104 -15 -13 -9 -26 -16 -30 -16 -10 0
1 130 13 163 12 30 26 35 34 12 4 -8 11 -15 16 -15 6 0 8 7 4 15 -7 20 11 19
22 -1 7 -13 13 -14 31 -5 11 7 21 16 21 21 0 12 31 -19 48 -50z m117 -89 c7
-12 -12 -24 -25 -16 -11 7 -4 25 10 25 5 0 11 -4 15 -9z m-349 -199 c-23 -23
-31 -8 -9 17 10 13 19 17 22 10 2 -6 -4 -18 -13 -27z m254 -22 c8 -5 11 -10 5
-10 -5 0 -3 -5 5 -10 10 -7 -11 -10 -70 -10 -75 0 -82 2 -65 14 36 25 99 33
125 16z m671 -89 c42 -42 38 -68 -6 -37 -11 7 -37 19 -57 25 -53 17 -50 41 4
41 19 0 40 -10 59 -29z m-1245 -28 c44 -48 46 -75 5 -67 -27 6 -29 4 -24 -15
3 -12 -1 -29 -10 -39 -41 -48 -59 -116 -35 -140 17 -17 27 -15 22 6 -5 19 78
117 89 105 4 -3 7 -64 7 -135 0 -115 -2 -130 -20 -148 -26 -26 -62 -25 -87 3
-34 38 -109 227 -90 227 3 0 13 -22 22 -49 16 -50 49 -90 62 -77 4 4 -2 15
-13 24 -44 35 -65 123 -41 169 9 15 21 43 27 61 7 17 19 32 27 32 12 0 11 7
-6 36 -26 44 -26 44 5 44 18 0 38 -12 60 -37z m642 5 c3 -16 -24 -32 -39 -23
-11 8 13 46 26 42 5 -2 11 -11 13 -19z m-559 -712 c7 -27 9 -51 7 -54 -3 -3
-2 -10 4 -16 14 -17 -5 -40 -26 -32 -16 6 -16 8 -4 17 10 6 11 12 5 17 -6 4
-12 36 -14 72 -3 74 10 72 28 -4z m-555 -105 c7 -11 -14 -20 -32 -13 -11 4
-11 6 0 13 17 11 26 11 32 0z m-109 -41 c4 -6 -6 -10 -22 -10 -22 0 -25 2 -13
10 19 12 27 12 35 0z m141 -13 c8 -19 7 -23 -7 -24 -12 -1 -16 3 -12 13 3 8 0
14 -6 14 -6 0 -11 5 -11 10 0 19 25 10 36 -13z m-182 -13 c26 -10 18 -21 -26
-37 -24 -8 -67 -24 -97 -36 -45 -18 -52 -19 -41 -5 8 9 37 26 66 39 28 12 55
28 58 34 8 12 17 14 40 5z m144 -13 c34 -29 19 -53 -32 -49 -33 2 -42 7 -44
24 -2 13 5 24 20 32 30 14 30 14 56 -7z m72 -44 c0 -5 -4 -5 -10 -2 -5 3 -10
14 -10 23 0 15 2 15 10 2 5 -8 10 -19 10 -23z m-141 -17 c19 0 9 -10 -15 -14
-189 -37 -260 -61 -363 -123 -30 -18 -60 -33 -65 -33 -29 0 167 102 243 126
47 15 91 31 96 35 16 11 48 17 70 13 11 -2 26 -4 34 -4z m67 -71 c11 -9 11
-13 -1 -25 -16 -17 -41 -18 -51 -3 -4 8 -9 7 -14 -2 -6 -9 -41 -13 -122 -13
l-113 -1 -115 -56 c-63 -31 -128 -70 -144 -87 -16 -17 -33 -29 -37 -26 -5 3
-14 -6 -21 -20 -6 -14 -17 -26 -24 -26 -8 0 -21 -12 -31 -27 -9 -16 -36 -50
-58 -78 -23 -27 -48 -61 -55 -74 -11 -21 -13 -22 -22 -8 -5 10 -6 23 -2 30 4
6 -5 1 -19 -12 -15 -14 -27 -20 -27 -15 0 17 18 37 44 48 23 10 51 42 93 108
10 15 28 32 41 38 17 7 23 16 19 30 -3 11 3 26 15 37 11 9 18 13 16 8 -2 -6 2
-11 7 -12 6 -2 10 6 10 16 0 10 6 25 14 34 17 21 42 22 35 2 -4 -8 -4 -15 -2
-15 3 0 47 23 99 51 146 80 165 86 359 112 39 6 91 -1 106 -14z m139 -19 c3
-5 2 -10 -4 -10 -5 0 -13 5 -16 10 -3 6 -2 10 4 10 5 0 13 -4 16 -10z m1853
-72 c92 -51 106 -68 40 -50 -18 4 -71 7 -117 5 l-83 -2 6 31 c3 17 6 39 6 49
0 33 48 22 148 -33z m-1753 -69 c16 -29 15 -31 -2 -27 -11 2 -19 14 -21 31 -4
35 4 34 23 -4z m1174 -18 c12 -7 8 -15 -17 -40 -17 -17 -41 -31 -53 -31 -12 0
-30 -7 -40 -16 -10 -9 -37 -18 -61 -20 -35 -4 -39 -3 -20 6 16 7 22 16 18 27
-10 33 27 61 90 71 32 5 61 10 64 11 3 0 11 -3 19 -8z m711 -33 c60 -13 140
-61 147 -89 3 -9 13 -19 24 -22 10 -3 22 -13 25 -24 3 -10 15 -35 25 -55 11
-21 19 -43 18 -50 -4 -31 2 -48 16 -48 8 0 15 5 15 10 0 28 21 0 63 -86 46
-91 48 -98 41 -155 -7 -63 0 -76 17 -31 11 26 11 26 19 6 5 -11 11 -46 15 -76
6 -45 4 -56 -9 -61 -17 -7 -22 -47 -6 -47 14 0 43 -47 38 -61 -2 -7 -14 4 -26
24 -27 46 -47 47 -62 2 -6 -19 -31 -56 -56 -82 -24 -27 -51 -62 -59 -79 -13
-27 -22 -33 -57 -36 -24 -3 -46 0 -50 6 -4 6 -13 5 -24 -5 -23 -19 -251 -22
-277 -4 -18 13 -18 13 1 19 11 4 24 6 28 4 5 -1 36 1 69 5 33 4 107 9 165 12
94 6 108 9 130 31 39 39 16 45 -140 38 -125 -7 -134 -6 -121 9 11 14 11 20 1
32 -17 20 -50 19 -50 -1 0 -10 6 -14 15 -10 10 4 15 -1 15 -14 0 -12 -7 -20
-17 -21 -10 -1 -30 -3 -45 -5 -33 -3 -36 8 -8 36 28 28 26 46 -2 28 -13 -9
-24 -27 -26 -41 -2 -19 -10 -26 -33 -29 -16 -3 -32 -1 -35 3 -2 5 -16 4 -30
-1 -33 -13 -34 -13 -35 8 0 9 -3 12 -5 5 -3 -7 -12 -9 -20 -6 -8 3 -14 -1 -14
-11 0 -17 -11 -19 -47 -10 -25 7 -32 27 -9 22 8 -2 14 -1 13 2 -4 12 28 37 34
27 4 -5 15 -7 25 -2 16 6 15 9 -13 21 -37 16 -45 29 -12 21 11 -3 19 -1 17 5
-4 11 -6 12 -39 3 -24 -6 -54 -54 -50 -82 2 -18 -14 -24 -76 -29 -31 -2 -62
-9 -68 -14 -6 -5 -32 -7 -57 -6 -32 3 -51 -1 -59 -10 -6 -8 -17 -14 -25 -14
-7 0 -17 -7 -22 -17 -7 -12 -28 -17 -76 -20 -57 -4 -65 -2 -60 12 5 12 9 13
20 4 11 -9 14 -8 14 4 0 8 -7 20 -15 27 -9 7 -15 20 -14 29 2 28 -1 41 -10 41
-5 0 -7 -8 -4 -19 3 -10 0 -22 -6 -25 -7 -5 -11 3 -11 20 0 22 -3 25 -12 16
-18 -18 -28 -15 -28 9 0 16 6 20 28 18 15 -1 34 1 42 4 8 3 29 8 45 11 110 17
131 24 118 37 -8 8 -17 8 -30 1 -24 -13 -46 0 -41 24 2 13 14 21 38 24 28 4
35 9 34 28 -1 28 12 29 21 1 6 -17 9 -18 22 -8 13 11 13 14 -3 26 -16 12 -16
13 -1 13 9 0 17 -5 17 -11 0 -5 5 -7 12 -3 6 4 8 3 4 -4 -3 -6 3 -13 14 -17
11 -3 20 -11 20 -17 0 -19 -32 -48 -54 -49 -15 -1 -12 -3 9 -8 36 -9 55 3 55
34 0 12 6 27 13 32 18 14 100 43 121 43 15 0 16 -2 2 -15 -8 -8 -23 -15 -33
-15 -22 0 -63 -27 -63 -42 0 -6 13 -8 34 -4 19 4 66 7 105 7 63 1 74 -2 91
-23 11 -12 20 -18 19 -13 -1 6 -1 18 0 28 1 21 21 23 21 2 0 -8 5 -15 11 -15
6 0 8 9 4 20 -6 18 -2 20 32 20 21 0 33 -4 26 -8 -22 -14 -20 -62 3 -62 12 0
15 6 10 25 -4 14 -2 25 4 25 5 0 10 -4 10 -10 0 -5 4 -10 9 -10 6 0 8 9 6 19
-2 11 3 22 13 26 14 6 192 15 292 15 14 0 32 5 40 10 13 8 13 13 1 31 -12 20
-11 24 5 36 11 8 27 12 37 9 21 -5 21 10 7 139 -11 89 -28 162 -57 243 -17 45
-39 59 -29 18 11 -44 -13 -38 -25 6 -7 24 -16 47 -20 52 -10 12 -293 43 -315
35 -11 -4 -38 -8 -62 -8 -24 -1 -63 -6 -88 -12 -25 -6 -47 -9 -50 -6 -3 3 6
23 20 45 l25 40 148 1 c81 0 176 -5 210 -11 103 -19 100 13 -3 37 -83 19 -145
23 -252 16 -50 -3 -92 -5 -92 -4 0 1 4 13 10 28 l10 26 127 -6 c71 -3 153 -11
183 -17z m-2905 -128 c-16 -17 -33 -30 -39 -30 -5 0 5 16 24 35 18 19 36 32
39 30 2 -3 -8 -19 -24 -35z m755 -149 c0 -12 -20 -25 -27 -18 -7 7 6 27 18 27
5 0 9 -4 9 -9z m115 -1 c3 -5 -1 -10 -9 -10 -9 0 -16 5 -16 10 0 6 4 10 9 10
6 0 13 -4 16 -10z m2218 -10 c3 -11 1 -18 -4 -14 -5 3 -9 12 -9 20 0 20 7 17
13 -6z m-2380 -4 c4 -10 1 -13 -8 -9 -8 3 -12 9 -9 14 7 12 11 11 17 -5z m-55
-31 c-3 -3 -9 2 -12 12 -6 14 -5 15 5 6 7 -7 10 -15 7 -18z m-478 -10 c-7 -9
-15 -13 -17 -11 -6 6 20 36 26 30 2 -2 -2 -10 -9 -19z m434 16 c19 -7 19 -8
-2 -13 -12 -4 -20 -2 -17 2 3 5 -1 11 -7 13 -7 3 -8 5 -3 6 6 0 19 -4 29 -8z
m-49 -12 c10 -15 -2 -23 -38 -25 -18 -2 -43 -6 -57 -10 -32 -9 -18 8 25 30 35
18 61 20 70 5z m2559 -37 c5 -17 5 -39 1 -49 -8 -19 -10 -15 -29 60 -10 41 16
30 28 -11z m-2333 19 c-12 -8 -12 -13 3 -36 11 -17 15 -36 11 -52 -4 -18 -2
-23 6 -17 8 4 9 3 5 -5 -4 -6 -3 -18 3 -25 9 -10 -2 -15 -52 -24 -34 -6 -72
-14 -85 -18 -18 -5 -21 -3 -16 11 5 13 3 16 -7 13 -25 -8 -38 14 -22 38 9 15
11 24 4 29 -7 3 -11 -2 -11 -14 0 -23 -16 -36 -25 -21 -3 5 0 10 7 10 8 0 6 5
-5 11 -22 13 -60 2 -51 -14 5 -8 2 -8 -7 1 -18 17 -30 15 -23 -3 8 -20 -1 -19
-21 1 -9 9 -19 14 -22 10 -7 -6 15 -36 25 -34 4 1 15 -2 26 -7 11 -5 21 -3 26
5 4 7 16 9 29 5 16 -5 21 -13 19 -33 -4 -35 -28 -55 -47 -39 -11 10 -13 9 -10
-2 7 -19 -30 -55 -56 -56 -12 -1 -26 -5 -33 -9 -6 -4 -21 -2 -34 5 -18 10 -24
9 -34 -6 -15 -20 -11 -21 -85 38 -45 35 -46 37 -39 77 8 45 -10 53 -20 9 -3
-13 -12 -24 -20 -24 -11 0 -14 11 -13 40 4 63 8 68 53 62 22 -3 43 -1 46 4 3
5 15 9 28 9 13 0 31 9 41 20 23 26 59 22 63 -6 2 -14 -5 -24 -23 -32 -15 -7
-30 -10 -35 -7 -13 8 -24 -15 -12 -27 7 -7 19 -4 38 11 15 11 37 21 50 21 12
0 26 5 30 12 5 8 10 6 15 -8 6 -16 8 -16 8 -2 1 10 13 24 29 32 25 13 121 34
185 40 15 2 30 6 34 9 3 4 13 7 22 7 13 0 14 -2 2 -9z m137 -20 c7 -4 15 -21
16 -37 2 -16 9 -28 15 -26 9 2 9 -3 0 -19 -9 -17 -8 -20 2 -14 9 6 11 3 6 -9
-4 -9 -3 -15 2 -12 12 8 41 -67 31 -78 -12 -12 -30 2 -30 24 0 10 -7 23 -16
28 -8 5 -16 16 -18 26 -1 10 -9 22 -17 28 -11 7 -11 11 -1 15 18 7 15 23 -5
23 -15 0 -16 2 -3 10 8 5 10 10 5 10 -6 0 -16 9 -23 20 -10 17 -10 20 5 20 10
0 24 -4 31 -9z m1531 -136 c0 -22 -6 -58 -13 -80 l-13 -40 -4 73 c-2 39 -1 72
4 72 4 0 7 10 7 23 0 18 2 19 10 7 5 -8 9 -33 9 -55z m-2471 36 c9 -5 11 -17
6 -35 -8 -34 -17 -39 -39 -22 -13 9 -16 20 -11 39 7 28 21 33 44 18z m1156 3
c19 -7 22 -54 3 -54 -19 0 -37 21 -37 42 0 19 8 22 34 12z m1996 -14 c0 -5 -2
-10 -4 -10 -3 0 -8 5 -11 10 -3 6 -1 10 4 10 6 0 11 -4 11 -10z m-1898 -45
c10 -11 18 -28 18 -37 0 -14 -6 -13 -45 9 -46 25 -54 40 -33 61 13 13 29 4 60
-33z m-1173 -3 c22 -19 28 -31 21 -38 -18 -18 0 -44 30 -44 42 0 72 -14 115
-54 21 -20 41 -36 46 -36 4 0 11 -5 15 -12 5 -8 0 -9 -14 -6 -26 7 -28 2 -7
-19 12 -11 19 -12 29 -3 12 9 13 7 9 -9 -3 -12 -11 -17 -19 -14 -9 3 -14 -2
-14 -16 0 -16 -6 -21 -27 -21 l-28 0 25 21 25 20 -31 -6 c-28 -5 -35 -1 -68
39 -21 26 -34 51 -30 57 5 8 3 9 -6 4 -10 -6 -12 -4 -6 10 5 15 4 16 -9 5 -10
-8 -15 -9 -15 -1 0 6 -7 11 -15 11 -17 0 -18 -23 -6 -88 10 -49 -7 -66 -37
-39 -12 11 -22 13 -33 6 -12 -6 -21 -4 -29 6 -7 8 -20 15 -30 15 -35 0 -51 44
-44 123 3 39 7 73 9 75 10 11 55 -14 65 -36 10 -23 13 -24 21 -10 5 10 17 14
29 11 11 -3 20 -1 20 3 0 13 -20 40 -21 29 0 -5 -4 -1 -8 10 -8 18 -6 35 4 35
2 0 18 -13 34 -28z m3081 -2 c0 -11 -2 -20 -5 -20 -2 0 -9 9 -15 20 -9 16 -8
20 5 20 8 0 15 -9 15 -20z m-2518 -12 c-7 -7 -12 -8 -12 -2 0 14 12 26 19 19
2 -3 -1 -11 -7 -17z m-423 -2 c8 -10 8 -16 -3 -25 -16 -13 -46 -5 -46 13 0 28
30 35 49 12z m922 4 c17 -10 18 -18 13 -88 -7 -86 -15 -102 -39 -82 -13 11
-16 25 -11 64 3 28 6 66 6 84 0 35 2 37 31 22z m-75 -57 c7 -21 11 -39 9 -42
-6 -5 -35 63 -35 80 0 20 13 1 26 -38z m157 26 c58 -30 67 -48 67 -130 0 -43
-4 -80 -10 -84 -10 -6 -111 41 -121 57 -3 4 -1 34 4 66 18 114 17 113 60 91z
m-909 -45 c54 -44 67 -66 46 -79 -9 -5 -49 23 -124 86 -10 9 -1 39 13 39 5 0
34 -20 65 -46z m570 20 c8 -20 11 -17 -40 -30 -28 -7 -46 -7 -58 0 -13 9 -20
7 -31 -8 -12 -16 -17 -17 -30 -6 -8 7 -19 10 -22 6 -4 -4 -1 -11 7 -16 13 -8
13 -10 -1 -10 -21 0 -102 -42 -124 -63 -10 -11 -25 -15 -36 -12 -11 4 -19 2
-19 -5 0 -12 -69 -10 -77 3 -3 4 1 22 8 38 10 25 16 29 35 25 12 -3 26 -2 29
4 11 18 55 12 56 -7 0 -14 2 -15 6 -3 11 27 35 43 64 43 16 0 29 4 29 9 0 4 8
8 18 8 10 0 22 4 28 9 5 5 24 12 41 16 28 5 32 4 27 -9 -5 -12 0 -16 17 -16
12 0 19 3 16 7 -10 10 13 33 33 33 10 0 21 -7 24 -16z m1424 -38 c-2 -19 -5
-22 -15 -14 -15 12 -18 32 -3 23 6 -3 10 -1 10 4 0 6 2 11 5 11 3 0 4 -11 3
-24z m102 -10 c0 -14 -4 -28 -10 -31 -6 -4 -10 7 -10 24 0 17 5 31 10 31 6 0
10 -11 10 -24z m606 -9 c10 -10 -43 -27 -86 -27 -38 0 -56 11 -46 29 6 10 122
8 132 -2z m59 3 c9 15 25 12 25 -5 0 -16 -55 -22 -64 -6 -9 14 6 22 20 10 8
-7 14 -7 19 1z m-738 -32 c-3 -7 -5 -2 -5 12 0 14 2 19 5 13 2 -7 2 -19 0 -25z
m514 22 c5 0 9 -3 9 -7 0 -5 -14 -8 -30 -9 -29 -1 -37 6 -23 20 4 3 13 4 21 1
7 -3 18 -5 23 -5z m-191 -21 c0 -8 -37 -19 -62 -19 -10 0 -18 6 -18 14 0 10
12 14 40 13 22 -1 40 -5 40 -8z m-1766 -23 c9 3 16 2 16 -4 0 -5 -9 -12 -20
-15 -14 -4 -24 2 -32 16 -10 19 -9 20 4 9 9 -7 23 -10 32 -6z m111 5 c3 -5 1
-12 -5 -16 -5 -3 -10 1 -10 9 0 18 6 21 15 7z m-561 -33 c0 -15 -3 -30 -6 -33
-10 -11 -27 21 -22 41 8 31 29 25 28 -8z m590 17 c-6 -16 -24 -21 -24 -7 0 11
11 22 21 22 5 0 6 -7 3 -15z m-270 -4 c3 -5 14 -7 25 -4 17 4 18 2 7 -31 -9
-30 -16 -36 -38 -36 -21 0 -28 5 -28 19 0 11 -4 22 -9 25 -5 3 -8 -10 -7 -30
1 -28 -3 -38 -19 -44 -12 -4 -36 -20 -54 -35 -22 -19 -35 -25 -43 -17 -7 7
-16 4 -30 -10 -26 -26 -39 -19 -56 30 -17 52 -11 72 22 72 14 0 28 5 32 11 3
6 19 9 35 7 16 -3 29 -1 29 3 0 4 7 10 16 13 10 4 13 2 9 -7 -4 -6 -1 -5 7 4
22 27 92 47 102 30z m321 -32 c-10 -15 -25 -10 -19 6 4 8 10 12 15 9 5 -3 7
-10 4 -15z m-178 -5 c-3 -3 -12 -4 -19 -1 -8 3 -5 6 6 6 11 1 17 -2 13 -5z
m1208 -32 c-2 -2 -19 0 -37 4 l-33 8 30 6 c26 5 52 -7 40 -18z m40 18 c3 -5
-1 -10 -9 -10 -9 0 -16 5 -16 10 0 6 4 10 9 10 6 0 13 -4 16 -10z m-1029 -15
c4 -8 14 -15 23 -15 9 0 40 -11 69 -25 45 -21 52 -28 52 -53 0 -16 -3 -31 -6
-35 -9 -8 -104 41 -131 67 -25 25 -41 76 -24 76 6 0 14 -7 17 -15z m874 0 c0
-8 -4 -15 -10 -15 -5 0 -7 7 -4 15 4 8 8 15 10 15 2 0 4 -7 4 -15z m47 -1 c15
-14 14 -16 -7 -12 -13 1 -25 9 -28 16 -5 17 16 15 35 -4z m-1686 -6 c31 1 40
-14 12 -20 -34 -7 -72 3 -66 18 3 8 10 11 15 7 6 -3 24 -6 39 -5z m1603 -3
c-4 -8 -10 -15 -15 -15 -4 0 -6 7 -3 15 4 8 10 15 15 15 4 0 6 -7 3 -15z
m-1946 -59 c2 -28 0 -37 -10 -34 -7 3 -14 22 -16 42 -2 28 0 37 10 34 7 -3 14
-22 16 -42z m75 12 c10 -10 22 -18 27 -18 12 0 40 -29 40 -41 0 -6 -8 -5 -21
1 -12 7 -37 9 -59 5 -33 -6 -39 -4 -45 15 -4 12 -4 32 -1 45 7 27 28 25 59 -7z
m957 -23 c0 -8 -4 -15 -10 -15 -5 0 -10 7 -10 15 0 8 5 15 10 15 6 0 10 -7 10
-15z m947 0 c-4 -8 -1 -17 5 -21 7 -4 5 -10 -6 -16 -10 -6 -20 -8 -22 -5 -8 8
8 57 18 57 6 0 8 -7 5 -15z m-100 -3 c8 -5 2 -13 -18 -24 -28 -16 -29 -16 -29
3 0 11 5 17 10 14 6 -3 10 -1 10 4 0 13 10 14 27 3z m-67 -12 c0 -5 -5 -10
-11 -10 -5 0 -7 5 -4 10 3 6 8 10 11 10 2 0 4 -4 4 -10z m-1575 -20 c3 -5 1
-10 -4 -10 -6 0 -11 5 -11 10 0 6 2 10 4 10 3 0 8 -4 11 -10z m-65 -10 c0 -5
-2 -10 -4 -10 -3 0 -8 5 -11 10 -3 6 -1 10 4 10 6 0 11 -4 11 -10z m212 -8 c4
-4 3 -14 -2 -21 -7 -12 -11 -12 -23 -2 -9 7 -24 11 -33 9 -11 -2 -20 4 -22 16
-4 17 0 18 35 12 21 -4 41 -11 45 -14z m911 -4 c4 -12 4 -24 1 -27 -6 -7 -24
20 -24 37 0 21 17 13 23 -10z m724 -7 c0 -11 -5 -17 -9 -15 -11 7 -10 34 1 34
6 0 9 -9 8 -19z m-187 -21 c0 -5 -2 -10 -4 -10 -3 0 -8 5 -11 10 -3 6 -1 10 4
10 6 0 11 -4 11 -10z m864 -15 c3 -8 1 -15 -4 -15 -6 0 -10 7 -10 15 0 8 2 15
4 15 2 0 6 -7 10 -15z m-2554 -10 c0 -8 -2 -15 -4 -15 -2 0 -6 7 -10 15 -3 8
-1 15 4 15 6 0 10 -7 10 -15z"/>
<path d="M2018 1937 c-12 -29 -10 -50 11 -93 11 -21 16 -42 12 -47 -8 -8 -37
-16 -84 -23 -16 -2 -32 -6 -37 -9 -9 -6 -40 21 -40 35 0 13 70 94 96 110 13 8
24 18 24 22 0 17 -29 6 -94 -37 -38 -25 -73 -45 -77 -45 -5 0 -9 -5 -9 -11 0
-5 -14 -27 -30 -48 -44 -55 -49 -99 -16 -160 14 -28 26 -58 26 -67 0 -13 3
-14 15 -4 8 7 15 23 15 35 0 34 24 37 95 10 36 -13 82 -26 102 -28 48 -6 142
-25 152 -31 27 -17 199 0 266 25 69 26 74 25 81 -21 9 -57 32 -49 39 13 1 12
3 27 4 33 0 7 9 11 19 10 13 -1 18 8 20 43 4 52 -33 133 -84 182 -32 31 -34
32 -34 11 0 -13 9 -40 19 -61 26 -50 15 -71 -29 -54 l-31 12 35 -40 c36 -39
47 -65 23 -56 -6 2 -62 10 -122 17 -61 7 -132 18 -159 25 l-49 12 91 6 c50 3
101 11 114 18 13 7 27 12 31 11 11 -3 -11 35 -25 44 -7 5 -2 15 18 31 28 22
29 23 6 23 -13 0 -36 -9 -51 -20 -33 -23 -94 -18 -126 10 -21 18 -147 46 -163
36 -15 -9 -40 27 -44 64 -2 27 -5 31 -10 17z m110 -226 c17 0 32 -5 32 -11 0
-6 -42 -10 -105 -10 -58 0 -105 4 -105 9 0 15 41 18 178 12z m10 -75 c8 -5 18
-4 24 2 6 6 22 7 37 3 14 -4 68 -7 119 -6 l92 2 0 -28 c0 -15 -5 -31 -11 -35
-20 -12 -229 -8 -242 5 -6 6 -26 11 -44 11 -18 0 -33 5 -33 10 0 6 -10 8 -22
5 -25 -6 -65 16 -55 31 7 11 118 12 135 0z"/>
<path d="M2123 1497 c-31 -31 -45 -38 -65 -31 -18 5 -20 3 -15 -17 4 -13 7
-30 7 -37 0 -7 4 -11 9 -7 5 3 12 1 16 -5 3 -5 17 -10 29 -10 13 0 37 -7 52
-15 44 -23 139 -19 182 7 32 20 33 22 16 35 -10 7 -24 13 -31 13 -7 0 -12 3
-12 8 4 26 -4 32 -44 32 -24 0 -62 9 -85 20 -48 23 -44 23 -59 7z"/>
<path d="M1387 1949 c7 -7 15 -10 18 -7 3 3 -2 9 -12 12 -14 6 -15 5 -6 -5z"/>
<path d="M750 1210 c-9 -6 -10 -10 -3 -10 6 0 15 5 18 10 8 12 4 12 -15 0z"/>
<path d="M3310 640 c0 -5 5 -10 10 -10 6 0 10 5 10 10 0 6 -4 10 -10 10 -5 0
-10 -4 -10 -10z"/>
<path d="M3358 355 c-3 -14 -1 -25 3 -25 5 0 9 11 9 25 0 14 -2 25 -4 25 -2 0
-6 -11 -8 -25z"/>
<path d="M3292 344 c-19 -18 -20 -23 -7 -27 9 -4 12 -13 9 -24 -4 -12 1 -10
15 7 37 45 23 83 -17 44z"/>
<path d="M3171 267 c-7 -10 -9 -22 -6 -27 4 -6 1 -10 -5 -10 -8 0 -7 -6 1 -21
7 -15 8 -19 0 -15 -7 5 -9 1 -5 -8 3 -9 14 -16 24 -16 14 0 17 9 16 47 -1 29
4 48 12 50 19 7 14 19 -7 19 -10 0 -24 -9 -30 -19z"/>
<path d="M2970 250 c0 -5 4 -10 9 -10 6 0 13 5 16 10 3 6 -1 10 -9 10 -9 0
-16 -4 -16 -10z"/>
<path d="M2635 240 c-3 -5 -1 -10 4 -10 6 0 11 5 11 10 0 6 -2 10 -4 10 -3 0
-8 -4 -11 -10z"/>
<path d="M3200 228 c0 -8 7 -15 15 -15 18 0 15 19 -3 25 -7 2 -12 -3 -12 -10z"/>
<path d="M2747 190 c-6 -23 8 -27 20 -6 4 7 15 16 23 19 9 3 4 6 -11 6 -19 1
-28 -5 -32 -19z"/>
<path d="M3287 203 c-4 -3 -7 -13 -7 -22 1 -13 3 -13 11 2 11 19 8 33 -4 20z"/>
<path d="M2395 159 c-4 -6 -5 -12 -2 -15 2 -3 7 2 10 11 7 17 1 20 -8 4z"/>
<path d="M2236 151 c-5 -8 -2 -20 8 -29 17 -17 19 -9 7 22 -6 15 -10 16 -15 7z"/>
<path d="M2225 80 c-8 -13 4 -32 16 -25 12 8 12 35 0 35 -6 0 -13 -4 -16 -10z"/>
<path d="M409 559 c-12 -8 -12 -10 1 -19 19 -13 50 -13 50 0 0 16 -35 29 -51
19z"/>
<path d="M890 540 c0 -5 5 -10 10 -10 6 0 10 5 10 10 0 6 -4 10 -10 10 -5 0
-10 -4 -10 -10z"/>
<path d="M615 500 c-3 -5 -1 -10 4 -10 6 0 11 5 11 10 0 6 -2 10 -4 10 -3 0
-8 -4 -11 -10z"/>
<path d="M647 494 c-4 -4 -7 -14 -7 -23 0 -11 3 -12 11 -4 6 6 10 16 7 23 -2
6 -7 8 -11 4z"/>
<path d="M480 453 c0 -12 5 -25 10 -28 13 -8 13 15 0 35 -8 12 -10 11 -10 -7z"/>
<path d="M91 363 c2 -21 -3 -48 -10 -60 -6 -13 -8 -23 -3 -23 13 0 29 22 29
40 0 8 2 20 3 25 5 22 -1 55 -10 55 -6 0 -10 -17 -9 -37z"/>
<path d="M290 320 c-8 -5 -10 -10 -5 -10 6 0 17 5 25 10 8 5 11 10 5 10 -5 0
-17 -5 -25 -10z"/>
<path d="M728 223 c7 -3 16 -2 19 1 4 3 -2 6 -13 5 -11 0 -14 -3 -6 -6z"/>
<path d="M748 193 c7 -3 16 -2 19 1 4 3 -2 6 -13 5 -11 0 -14 -3 -6 -6z"/>
<path d="M0 27 c0 -21 5 -27 22 -27 21 0 21 0 2 23 -10 12 -20 24 -21 26 -2 2
-3 -8 -3 -22z"/>
<path d="M3436 33 c-12 -12 -6 -33 9 -33 8 0 15 6 15 14 0 17 -14 28 -24 19z"/>
<path d="M151 14 c0 -11 3 -14 6 -6 3 7 2 16 -1 19 -3 4 -6 -2 -5 -13z"/>
</g>
</svg>
